{"title":"Molokh (Moloch) 1999 DVDRip Xvid AC3 HardSubbed 480p","uid":6327815,"size":2147576500,"categoryP":"video","categoryS":"movies","magnet":"?xt=urn:btih:f18c4fa987ee85416ea89f43e66120591d8caeed&amp;dn=Molokh+%28Moloch%29+1999+DVDRip+Xvid+AC3+HardSubbed+480p&amp;tr=udp%3A%2F%2Ftracker.openbittorrent.com%3A80&amp;tr=udp%3A%2F%2Fopen.demonii.com%3A1337&amp;tr=udp%3A%2F%2Ftracker.coppersurfer.tk%3A6969&amp;tr=udp%3A%2F%2Fexodus.desync.com%3A6969","seeders":0,"leechers":2,"uploader":"TvTeam","files":7,"time":1303173255,"description":". \n  &lt;a href=&quot;\nhttp://www.torrenting.com/&quot; rel=&quot;nofollow&quot; target=&quot;_NEW&quot;&gt;\nhttp://www.torrenting.com/&lt;/a&gt;        :     Greatest Movie Tracker on The Net!!!\n &lt;a href=&quot;\nhttp://www.Torrenting.com&quot; rel=&quot;nofollow&quot; target=&quot;_NEW&quot;&gt;\nhttp://www.Torrenting.com&lt;/a&gt;          :     Once &amp; For all ;)\n\n\n               www . Torrenting . Com \n\n(((((((((((((= Enjoy No RAR releases =))))))))))))))))))))\n\n\n...................................NFO:....................................\n\n.Complete name                    : Molokh 1999 DVDRip Xvid AC3 480p.avi\nFormat                           : AVI\nFormat/Info                      : Audio Video Interleave\nFile size                        : 1.97 GiB\nDuration                         : 1h 43mn\nOverall bit rate                 : 2 733 Kbps\nWriting application              : VirtualDubMod 1.5.10.2 (build 2540/release)\nWriting library                  : VirtualDubMod build 2540/release\n\nVideo\nID                               : 0\nFormat                           : MPEG-4 Visual\nFormat profile                   : Advanced Simple@L5\nFormat settings, BVOP            : 1\nFormat settings, QPel            : No\nFormat settings, GMC             : No warppoints\nFormat settings, Matrix          : Default (H.263)\nCodec ID                         : XVID\nCodec ID/Hint                    : XviD\nDuration                         : 1h 43mn\nBit rate                         : 2 500 Kbps\nWidth                            : 640 pixels\nHeight                           : 384 pixels\nDisplay aspect ratio             : 1.667\nFrame rate                       : 25.000 fps\nColor space                      : YUV\nChroma subsampling               : 4:2:0\nBit depth                        : 8 bits\nScan type                        : Progressive\nCompression mode                 : Lossy\nBits/(Pixel*Frame)               : 0.407\nStream size                      : 1.80 GiB (91%)\nWriting library                  : XviD 1.2.1 (UTC 2008-12-04)\n\nAudio\nID                               : 1\nFormat                           : AC-3\nFormat/Info                      : Audio Coding 3\nMode extension                   : CM (complete main)\nCodec ID                         : 2000\nDuration                         : 1h 43mn\nBit rate mode                    : Constant\nBit rate                         : 224 Kbps\nChannel(s)                       : 2 channels\nChannel positions                : Front: L R\nSampling rate                    : 48.0 KHz\nBit depth                        : 16 bits\nCompression mode                 : Lossy\nStream size                      : 165 MiB (8%)\nAlignment                        : Aligned on interleaves\nInterleave, duration             : 40 ms (1.00 video frame)\nInterleave, preload duration     : 512 ms\n &lt;a href=&quot;\nhttp://www.imdb.com/title/tt0199777/&quot; rel=&quot;nofollow&quot; target=&quot;_NEW&quot;&gt;\nhttp://www.imdb.com/title/tt0199777/&lt;/a&gt;\n\nIn 1942, in Bavaria, Eva Braun is alone, when Adolf Hitler arrives with Dr. Josef Goebbels and his wife Magda Goebbels and Martin Bormann to spend a couple of days without talking politics.","torrent":{"xt":"urn:btih:f18c4fa987ee85416ea89f43e66120591d8caeed","amp;dn":"Molokh+%28Moloch%29+1999+DVDRip+Xvid+AC3+HardSubbed+480p","amp;tr":["udp%3A%2F%2Ftracker.openbittorrent.com%3A80","udp%3A%2F%2Fopen.demonii.com%3A1337","udp%3A%2F%2Ftracker.coppersurfer.tk%3A6969","udp%3A%2F%2Fexodus.desync.com%3A6969"],"infoHash":"f18c4fa987ee85416ea89f43e66120591d8caeed","infoHashBuffer":{"type":"Buffer","data":[241,140,79,169,135,238,133,65,110,168,159,67,230,97,32,89,29,140,174,237]},"announce":[],"urlList":[]}}